<?xml version="1.0" encoding="UTF-8"?>
<svg id="Layer_1" xmlns="http://www.w3.org/2000/svg" version="1.1" viewBox="0 0 512 512">
  <!-- Generator: Adobe Illustrator 29.5.1, SVG Export Plug-In . SVG Version: 2.1.0 Build 141)  -->
  <path d="M201.83,57.42c9.77-1.68,14.89,7.68,21.14,13.12,20.54,17.87,40.11,36.68,60.41,54.77,15.24,13.58,26.29,20.58,35.33,40.38,8.45,18.5,10.96,45.64-.04,63.36-5.76,9.28-13.47,21.25-20.37,29.56-30.83,37.1-71.72,48.28-107.11,77.33-5.65,4.64-21.73,22.56-24.17,28.99-4.43,11.7,8.3,21.28,13.67,30.6,13.14,12.93,28.97,22.7,43.81,33.5,3.01,3.91-1.98,10.39-6.02,10.78-6.14.59-12.75-4.85-20-3.95-6.04.75-6.94,4.64-13.95.12-12.24-11.5-23.41-23.8-34.82-36.06-7.41-7.96-17.46-11.71-13.49-24.72,2.9-9.5,9.95-14.99,15.41-22.44,2.9-3.96,4.82-8.66,7.74-12.4,6.02-7.69,15.89-15.04,22.11-22.99,2.34-6.29-3.32-7.06-8.13-7.94-8.88-1.63-21.29-3.14-29.47.94-3.89,1.94-8.47,7.29-13.07,6.99-1.44-.09-10.41-4.44-12.28-5.46-7.83-4.28-17.91-14.94-27.07-12.86-4.3.98-10,9.43-15.51,3.9-8.15-8.18,12.41-23.7,19.22-26.78,21.42-9.7,25.56,8.21,41.65,14.24,17.72,6.64,42.75,3.85,61.51,6.77,5.79-.35,13.27-5.12,9.4-11.64-2.39-4.03-17.78-5.29-22.48-6.51-15.16-3.95-28-6.85-43.45-9.71-18.83-3.48-33.69-3.63-48.91-17.13-6.3-5.59-8.6-13.71-13.72-20.1-12.55-15.65-17.65,4.08-28.15,4.83-7.04.5-10.24-6.39-6.38-12.08,2.58-3.8,23.59-20.13,27.88-21.25,6.94-1.81,11.75.61,17.59,3.87,8.22,4.58,11.46,10.5,18.09,16.55,9.2,8.4,18.5,17.13,27.8,25.36,14.37,12.71,15.78,9.17,33.33,11.77,10.52,1.56,20.67,4.84,31.1,6.76,9.67,1.78,27.05,5.57,35.4-.07,2.84-1.92,16.75-20.08,17.81-23.26,2.45-7.35.48-11.09-6.28-13.94s-20.01-6.5-27.23-8.21c-4.68-1.1-19.09-1.75-20.9-5.7-4.87-10.57,22.1-2.2,25.88-1.69,5.1.69,11.42.19,16.61,1.11,8.46,1.5,36.75,13.99,39.9.03,1.76-7.8-.53-25.66-3.27-33.44-2.26-6.43-5.85-10.08-12.49-11.67-15.03-3.61-49.7-.51-60.62-8.65-7.98-5.95-1.34-11.3,6.91-10.93,9.78.44,20.61,3.45,30.56,2.43,17.47-1.78-7.89-9.04-12.6-9.92-13.26-2.49-26.42-.34-39.75-.47-9.99-.1-36.31-15.03-44.64-21.46-7.83-6.05-13.03-15-20.39-21.49-8.95-3.66-17.15,8.99-20.78,6.3-2.83-2.1,1.75-10.6,3.12-13.09,9.23-16.79,26.94-20.75,44.03-13.15s32.41,25.48,45.92,37.84c7.88,7.21,23.51,8.98,33.81,8.05,16.81-1.52,7.59-10.46,2.97-18.25-10.76-18.17-15.98-19.24-29.95-32.87-4.48-4.37-14.94-15.83-2.61-17.95Z"/>
  <path d="M246.9,46.12c15.24-4.44,30.11,14.56,40.12,23.17,3.4,2.92,8.03,5.33,11.67,8.46,17.44,15.04,31.88,34.75,47.12,51.95,4.83,5.45,7.42,13.03,16.02,12.03,3.39-.39,13.59-4.78,16.7-6.66,3.89-2.35,14-13.3,18-4.53,5.17,11.31-24.68,15.14-28.06,25.89-2.07,6.58,3.42,17.69,4.88,24.66,3.66,17.57-2.53,33.81-9.05,50.1-1.64,4.09-12.63,23.35-8.5,26.24,2.64,1.84,7.53-.9,9.96-2.22,17.09-9.27,40.47-24.13,55.34-36.48,3.07-2.55,5.73-6.44,8.9-8.82,10.13-7.61,27.31-11.69,38.2-3.68,6.21,4.57,22.95,28.63,23.78,35.82,1.31,11.45-10.06,20.49-21.19,17.97-7.29-1.65-18.2-21.82-24.34-26.4-7.84-5.86-12.12.25-19.17,3.37-2.83,1.26-5.95,1.48-9.04,3.04-14.39,7.3-31.27,23.97-45.99,32.14-13.03,4.37-26.68,7.17-39.79,10.95-10.14,2.93-18.04,13.42-25.74,20.17-12.14,10.64-25.13,20.64-37.07,31.39-1.73,1.55-8.58,7.79-8.04,9.66.53.78,1.04,1.14,2,1.25,1.9.22,10.84-2.8,13.26-3.68,7.18-2.64,12.54-6.74,19.22-9.77,15.32-6.96,30.95-13.19,46.47-19.57,6.62-2.72,16.2-9.08,23.34-8.93,4.72.09,22.06,4.96,27.18,6.71,7.13,2.44,33.58,14.66,35.69,21.5,3.59,11.65-6.25,17.99-15.88,20.45-5.73,1.47-18.78,4.5-24.08,3.39-4.58-.96-24.28-12.45-28.53-15.77-10.68-8.35-11.36-16.17-27.55-9.79-20.31,8-40.35,19.36-60.91,27.68-7.93,3.21-31.9,13.46-38.82,12.74-3.69-.38-12.08-4.58-13.28,2.05-1.54,8.54,12.28,23.8,18.59,28.89,9.79,7.91,21.6,16.03,29.75,25.82,7.82,9.4,3.31,17.5-7.22,10.44-6.22-4.17-13.63-11.62-19.81-16.44-12.91-10.07-21.82-14.65-31.49-28.91-8.29-12.23-11.98-20.46-3.38-34.19,5.72-9.13,12.21-9.27,20.81-13.82,18.84-9.96,37.32-23.72,53.96-37.05,10.86-8.7,22.36-18.01,31.42-28.18,19.37-21.76,31.1-30.11,41.43-59.25,3.4-9.59,8.43-23.2,5.65-32.97-6.67-23.45-24.22-42.56-39.46-60.42-13.23-15.5-23.54-28.71-39.47-41.88-9.27-7.66-27.46-18.57-34.63-26.58-3.04-3.39-4.76-10.26.99-11.93Z"/>
</svg>